<?xml version="1.0" encoding="UTF-8" standalone="no"?>
<!-- Created with Inkscape (http://www.inkscape.org/) -->

<svg
   xmlns:dc="http://purl.org/dc/elements/1.1/"
   xmlns:cc="http://creativecommons.org/ns#"
   xmlns:rdf="http://www.w3.org/1999/02/22-rdf-syntax-ns#"
   xmlns:svg="http://www.w3.org/2000/svg"
   xmlns="http://www.w3.org/2000/svg"
   xmlns:sodipodi="http://sodipodi.sourceforge.net/DTD/sodipodi-0.dtd"
   xmlns:inkscape="http://www.inkscape.org/namespaces/inkscape"
   width="1468.4026"
   height="215.67264"
   viewBox="0 0 1468.4026 215.67264"
   version="1.1"
   id="SVGRoot"
   inkscape:version="0.92.3 (2405546, 2018-03-11)"
   sodipodi:docname="logo.svg">
  <defs
     id="defs5484" />
  <sodipodi:namedview
     id="base"
     pagecolor="#ffffff"
     bordercolor="#666666"
     borderopacity="1.0"
     inkscape:pageopacity="0.0"
     inkscape:pageshadow="2"
     inkscape:zoom="0.45254834"
     inkscape:cx="434.22817"
     inkscape:cy="-27.95762"
     inkscape:document-units="px"
     inkscape:current-layer="layer1"
     showgrid="false"
     inkscape:window-width="1920"
     inkscape:window-height="1003"
     inkscape:window-x="-9"
     inkscape:window-y="-9"
     inkscape:window-maximized="1"
     inkscape:snap-global="false" />
  <metadata
     id="metadata5487">
    <rdf:RDF>
      <cc:Work
         rdf:about="">
        <dc:format>image/svg+xml</dc:format>
        <dc:type
           rdf:resource="http://purl.org/dc/dcmitype/StillImage" />
        <dc:title></dc:title>
      </cc:Work>
    </rdf:RDF>
  </metadata>
  <g
     inkscape:label="Layer 1"
     inkscape:groupmode="layer"
     id="layer1"
     transform="translate(-225.79874,-432.16369)">
    <g
       id="g4436">
      <path
         d="m 632.93625,476.43996 -29.55246,126.84167 h 19.21425 q 32.85906,0 53.91949,-16.29034 21.19956,-16.29034 28.43358,-47.33942 7.20158,-30.90977 -6.30032,-47.06087 -13.502,-16.15104 -46.50029,-16.15104 z m -44.16491,-40.51699 h 56.52876 q 47.33942,0 68.86259,6.82243 21.69487,6.68323 34.50068,22.83433 11.34311,14.06261 14.16202,32.4414 2.81884,18.37884 -2.59855,41.63074 -5.4823,23.53053 -16.89765,42.04854 -11.38296,18.37885 -29.27887,32.44136 -20.47104,16.15114 -45.45178,22.97355 -24.94832,6.68321 -71.73077,6.68321 h -56.52876 z"
         style="font-style:normal;font-variant:normal;font-weight:bold;font-stretch:normal;font-size:medium;line-height:1.25;font-family:raleway;-inkscape-font-specification:raleway;letter-spacing:0px;word-spacing:0px;fill:#000000;fill-opacity:1;stroke:none;stroke-width:7.12875175"
         id="path5939"
         inkscape:connector-curvature="0" />
      <path
         d="M 883.48991,605.92704 H 799.6714 l -22.05075,37.87149 H 723.73732 L 849.16575,435.92297 h 63.90811 l 28.56377,207.87556 H 887.7543 Z m -61.46634,-38.56769 h 56.94648 l -9.13454,-82.70466 z"
         style="font-style:normal;font-variant:normal;font-weight:bold;font-stretch:normal;font-size:medium;line-height:1.25;font-family:raleway;-inkscape-font-specification:raleway;letter-spacing:0px;word-spacing:0px;fill:#000000;fill-opacity:1;stroke:none;stroke-width:7.12875175"
         id="path5941"
         inkscape:connector-curvature="0" />
      <path
         d="m 1146.3804,442.46695 -10.251,43.9978 q -15.3415,-7.65784 -30.7235,-11.55642 -15.382,-3.89848 -29.8623,-3.89848 -19.2142,0 -29.6363,5.29088 -10.4222,5.29083 -13.0173,16.42949 -1.9464,8.35404 3.0769,13.08797 5.195,4.5947 20.7068,7.9363 l 21.7638,4.59469 q 33.0471,6.96173 44.3578,21.16347 11.3107,14.20184 5.212,40.37776 -8.0125,34.39059 -32.405,51.23789 -24.2209,16.70803 -66.1302,16.70803 -19.7711,0 -38.80565,-3.75933 -19.03452,-3.7593 -37.2256,-11.13869 l 10.54285,-45.25082 q 17.445,10.58171 34.69795,16.0118 17.42455,5.2909 34.68945,5.2909 17.5435,0 28.2345,-5.84786 10.6912,-5.8478 13.2215,-16.70801 2.2707,-9.74631 -2.9013,-15.03717 -5.0328,-5.29088 -22.9954,-9.46793 l -19.6752,-4.59468 q -29.63119,-6.68321 -40.70533,-21.3027 -10.93488,-14.61951 -5.16065,-39.40304 7.23404,-31.04907 31.17638,-47.75707 23.9424,-16.70804 61.5354,-16.70804 17.1257,0 34.6097,2.64543 17.5164,2.50623 35.6697,7.65783 z"
         style="font-style:normal;font-variant:normal;font-weight:bold;font-stretch:normal;font-size:medium;line-height:1.25;font-family:raleway;-inkscape-font-specification:raleway;letter-spacing:0px;word-spacing:0px;fill:#000000;fill-opacity:1;stroke:none;stroke-width:7.12875175"
         id="path5943"
         inkscape:connector-curvature="0" />
      <path
         d="m 1180.235,435.92297 h 53.6048 l -18.4581,79.22381 h 79.0846 l 18.4581,-79.22381 h 53.605 l -48.4324,207.87556 h -53.6049 l 20.5343,-88.13475 h -79.0846 l -20.5343,88.13475 h -53.6049 z"
         style="font-style:normal;font-variant:normal;font-weight:bold;font-stretch:normal;font-size:medium;line-height:1.25;font-family:raleway;-inkscape-font-specification:raleway;letter-spacing:0px;word-spacing:0px;fill:#000000;fill-opacity:1;stroke:none;stroke-width:7.12875175"
         id="path5945"
         inkscape:connector-curvature="0" />
      <path
         d="m 1477.3313,435.92297 h 28.1252 l -48.4323,207.87556 h -28.1253 z"
         style="font-style:normal;font-variant:normal;font-weight:normal;font-stretch:normal;font-size:medium;line-height:1.25;font-family:raleway;-inkscape-font-specification:raleway;letter-spacing:0px;word-spacing:0px;fill:#000000;fill-opacity:1;stroke:none;stroke-width:7.12875175"
         id="path5947"
         inkscape:connector-curvature="0" />
      <path
         d="m 1518.3495,435.92297 h 175.8518 l -5.5147,23.66975 h -73.7936 l -42.9176,184.20581 h -28.2646 l 42.9175,-184.20581 h -73.7935 z"
         style="font-style:normal;font-variant:normal;font-weight:normal;font-stretch:normal;font-size:medium;line-height:1.25;font-family:raleway;-inkscape-font-specification:raleway;letter-spacing:0px;word-spacing:0px;fill:#000000;fill-opacity:1;stroke:none;stroke-width:7.12875175"
         id="path5949"
         inkscape:connector-curvature="0" />
      <g
         style="fill:#004455"
         transform="matrix(1.8883061,0,0.06680311,1.8883061,147.54386,351.16941)"
         id="g5955">
        <path
           id="path5951"
           d="m 86.409289,92.00086 -4.156503,15.48828 h 14.12305 l 4.156504,-15.48828 z m 22.205081,0 -4.1565,15.48828 h 13.13281 l 4.1565,-15.48828 z m 19.69726,0 -4.1565,15.48828 h 86.1836 l 4.1565,-15.48828 z"
           style="fill:#004455;stroke-width:3.37693"
           inkscape:connector-curvature="0" />
        <rect
           transform="matrix(1,0,-0.25919319,0.9658255,0,0)"
           y="95.255981"
           x="661.62402"
           height="16.037516"
           width="45.95742"
           id="rect5953"
           style="fill:#004455;stroke-width:2.05824566" />
      </g>
      <g
         style="fill:#00aad4"
         transform="matrix(1.8883061,0,0.06680311,1.8883061,147.54386,351.16941)"
         id="g5973">
        <path
           id="path5957"
           d="M 77.532062,44.68836 73.375559,60.17664 H 84.324777 L 88.48128,44.68836 Z m 20.544918,0 -4.156503,15.48828 h 12.123053 l 4.1565,-15.48828 z m 16.66797,0 -4.1565,15.48828 h 112.44727 l 4.1565,-15.48828 z"
           style="fill:#00aad4;stroke-width:3.65024257"
           inkscape:connector-curvature="0" />
        <path
           id="path5959"
           d="M 53.656223,68.34461 49.49972,83.83289 h 14.839843 l 4.156503,-15.48828 z m 20.394531,0 -4.156503,15.48828 h 8.20313 l 4.156503,-15.48828 z m 12.75,0 -4.156503,15.48828 H 216.68722 l 4.1565,-15.48828 z"
           style="fill:#00aad4;stroke-width:3.8580792"
           inkscape:connector-curvature="0" />
        <path
           id="path5961"
           d="m 40.959232,115.65711 -4.157026,15.49023 h 6.757812 l 4.157026,-15.49023 z m 13.830078,0 -4.157026,15.49023 h 29.292973 l 4.157026,-15.49023 z m 35.355473,0 -4.157026,15.49023 H 203.98971 l 4.15702,-15.49023 z"
           style="fill:#00aad4;stroke-width:3.8580792"
           inkscape:connector-curvature="0" />
        <path
           id="path5963"
           d="m 108.09316,139.31336 -4.15703,15.49023 h 21.1582 l 4.15703,-15.49023 z m 25.19922,0 -4.15703,15.49023 h 11.11133 l 4.15703,-15.49023 z m 20.20312,0 -4.15703,15.49023 h 48.30274 l 4.15703,-15.49023 z"
           style="fill:#00aad4;stroke-width:2.88836884"
           inkscape:connector-curvature="0" />
        <rect
           transform="matrix(1,0,-0.25919319,0.9658255,0,0)"
           y="46.268726"
           x="661.62402"
           height="16.037516"
           width="45.957317"
           id="rect5965"
           style="fill:#00aad4;stroke-width:2.05824351" />
        <rect
           transform="matrix(1,0,-0.25919319,0.9658255,0,0)"
           style="fill:#00aad4;stroke-width:2.05824757"
           id="rect5967"
           width="45.957504"
           height="16.037516"
           x="661.62402"
           y="70.762352" />
        <rect
           transform="matrix(1,0,-0.25919319,0.9658255,0,0)"
           style="fill:#00aad4;stroke-width:2.05824757"
           id="rect5969"
           width="45.957504"
           height="16.037516"
           x="661.62402"
           y="119.74961" />
        <rect
           transform="matrix(1,0,-0.25919319,0.9658255,0,0)"
           y="144.24333"
           x="661.62402"
           height="16.037516"
           width="45.957554"
           id="rect5971"
           style="fill:#00aad4;stroke-width:2.05824876" />
      </g>
    </g>
  </g>
</svg>
